<svg xmlns="http://www.w3.org/2000/svg" viewBox="120 -761 720 561" fill="none" shape-rendering="geometricPrecision">
  <path
    d="M120-200 340-480 120-760.77H586.92Q602.06-760.77 615.61-754.58 629.15-748.38 637.85-736.46L840-480 637.85-223.54Q629.15-211.62 615.61-205.42 602.06-199.23 586.92-199.23H120Z"
    fill="#f3e6a2"
  />
  <path
    d="m120-200 220-280-220-280.77h466.92q15.14 0 28.69 6.19 13.54 6.2 22.24 18.12L840-480 638.62-224.31q-8.7 11.93-22.24 18.12-13.55 6.19-28.69 6.19H120Zm80-40h388.46q6.16 0 10.77-2.31 4.62-2.31 8.46-6.92L790-480 607.69-711.54q-3.84-4.61-8.46-6.92-4.61-2.31-10.77-2.31H200L390-480 200-240Zm295.38-240.77Z"
    fill="#767676"
  />
</svg>
